<svg xmlns="http://www.w3.org/2000/svg" width="1600" height="1100" viewBox="0 0 1600 1100">
<rect width="1600" height="1100" fill="#ffffff"/>
<style>text{font-family:Arial,Helvetica,sans-serif}</style>
<text x="42.00" y="57.00" font-size="32" fill="#172033" font-weight="bold" text-anchor="start">BR-GS v3.4: change relative to official 3DGS</text>
<text x="43.00" y="88.00" font-size="17" fill="#617085" font-weight="normal" text-anchor="start">Horizontal marks show scene means; dots show paired training seeds (n=3). P01-P02: development; P03-P04: held-out.</text>
<rect x="35.00" y="120.00" width="750.00" height="470.00" rx="18" fill="#fbfcfe" stroke="#d7dee8" stroke-width="2"/>
<text x="55.00" y="155.00" font-size="21" fill="#172033" font-weight="bold" text-anchor="start">Point-count reduction</text>
<line x1="123.00" y1="535.00" x2="761.00" y2="535.00" stroke="#d9e0e8" stroke-width="1.5" stroke-linecap="round"/>
<text x="113.00" y="540.00" font-size="13" fill="#617085" font-weight="normal" text-anchor="end">-7.1%</text>
<line x1="123.00" y1="446.75" x2="761.00" y2="446.75" stroke="#d9e0e8" stroke-width="1.5" stroke-linecap="round"/>
<text x="113.00" y="451.75" font-size="13" fill="#617085" font-weight="normal" text-anchor="end">6.3%</text>
<line x1="123.00" y1="358.50" x2="761.00" y2="358.50" stroke="#d9e0e8" stroke-width="1.5" stroke-linecap="round"/>
<text x="113.00" y="363.50" font-size="13" fill="#617085" font-weight="normal" text-anchor="end">19.8%</text>
<line x1="123.00" y1="270.25" x2="761.00" y2="270.25" stroke="#d9e0e8" stroke-width="1.5" stroke-linecap="round"/>
<text x="113.00" y="275.25" font-size="13" fill="#617085" font-weight="normal" text-anchor="end">33.3%</text>
<line x1="123.00" y1="182.00" x2="761.00" y2="182.00" stroke="#d9e0e8" stroke-width="1.5" stroke-linecap="round"/>
<text x="113.00" y="187.00" font-size="13" fill="#617085" font-weight="normal" text-anchor="end">46.7%</text>
<line x1="123.00" y1="488.28" x2="761.00" y2="488.28" stroke="#6b7480" stroke-width="2" stroke-linecap="round"/>
<circle cx="189.75" cy="363.14" r="5.00" fill="#2878b5" stroke="#ffffff" stroke-width="1.5"/>
<circle cx="202.75" cy="255.84" r="5.00" fill="#2878b5" stroke="#ffffff" stroke-width="1.5"/>
<circle cx="215.75" cy="297.32" r="5.00" fill="#2878b5" stroke="#ffffff" stroke-width="1.5"/>
<line x1="174.75" y1="303.21" x2="230.75" y2="303.21" stroke="#172033" stroke-width="4" stroke-linecap="round"/>
<text x="202.75" y="566.00" font-size="17" fill="#172033" font-weight="bold" text-anchor="middle">P01</text>
<text x="202.75" y="290.21" font-size="13" fill="#172033" font-weight="normal" text-anchor="middle">28.2%</text>
<circle cx="349.25" cy="258.82" r="5.00" fill="#2878b5" stroke="#ffffff" stroke-width="1.5"/>
<circle cx="362.25" cy="387.50" r="5.00" fill="#2878b5" stroke="#ffffff" stroke-width="1.5"/>
<circle cx="375.25" cy="228.72" r="5.00" fill="#2878b5" stroke="#ffffff" stroke-width="1.5"/>
<line x1="334.25" y1="287.22" x2="390.25" y2="287.22" stroke="#172033" stroke-width="4" stroke-linecap="round"/>
<text x="362.25" y="566.00" font-size="17" fill="#172033" font-weight="bold" text-anchor="middle">P02</text>
<text x="362.25" y="274.22" font-size="13" fill="#172033" font-weight="normal" text-anchor="middle">30.7%</text>
<circle cx="508.75" cy="466.19" r="5.00" fill="#d47a22" stroke="#ffffff" stroke-width="1.5"/>
<circle cx="521.75" cy="482.21" r="5.00" fill="#d47a22" stroke="#ffffff" stroke-width="1.5"/>
<circle cx="534.75" cy="420.88" r="5.00" fill="#d47a22" stroke="#ffffff" stroke-width="1.5"/>
<line x1="493.75" y1="455.35" x2="549.75" y2="455.35" stroke="#172033" stroke-width="4" stroke-linecap="round"/>
<text x="521.75" y="566.00" font-size="17" fill="#172033" font-weight="bold" text-anchor="middle">P03</text>
<text x="521.75" y="442.35" font-size="13" fill="#172033" font-weight="normal" text-anchor="middle">5.0%</text>
<circle cx="668.25" cy="472.45" r="5.00" fill="#d47a22" stroke="#ffffff" stroke-width="1.5"/>
<circle cx="681.25" cy="455.90" r="5.00" fill="#d47a22" stroke="#ffffff" stroke-width="1.5"/>
<circle cx="694.25" cy="435.40" r="5.00" fill="#d47a22" stroke="#ffffff" stroke-width="1.5"/>
<line x1="653.25" y1="454.44" x2="709.25" y2="454.44" stroke="#172033" stroke-width="4" stroke-linecap="round"/>
<text x="681.25" y="566.00" font-size="17" fill="#172033" font-weight="bold" text-anchor="middle">P04</text>
<text x="681.25" y="441.44" font-size="13" fill="#172033" font-weight="normal" text-anchor="middle">5.2%</text>
<text x="55.00" y="177.00" font-size="13" fill="#617085" font-weight="normal" text-anchor="start">percent; higher is more compact</text>
<rect x="815.00" y="120.00" width="750.00" height="470.00" rx="18" fill="#fbfcfe" stroke="#d7dee8" stroke-width="2"/>
<text x="835.00" y="155.00" font-size="21" fill="#172033" font-weight="bold" text-anchor="start">PSNR change</text>
<line x1="903.00" y1="535.00" x2="1541.00" y2="535.00" stroke="#d9e0e8" stroke-width="1.5" stroke-linecap="round"/>
<text x="893.00" y="540.00" font-size="13" fill="#617085" font-weight="normal" text-anchor="end">-1.93</text>
<line x1="903.00" y1="446.75" x2="1541.00" y2="446.75" stroke="#d9e0e8" stroke-width="1.5" stroke-linecap="round"/>
<text x="893.00" y="451.75" font-size="13" fill="#617085" font-weight="normal" text-anchor="end">-0.96</text>
<line x1="903.00" y1="358.50" x2="1541.00" y2="358.50" stroke="#d9e0e8" stroke-width="1.5" stroke-linecap="round"/>
<text x="893.00" y="363.50" font-size="13" fill="#617085" font-weight="normal" text-anchor="end">+0.01</text>
<line x1="903.00" y1="270.25" x2="1541.00" y2="270.25" stroke="#d9e0e8" stroke-width="1.5" stroke-linecap="round"/>
<text x="893.00" y="275.25" font-size="13" fill="#617085" font-weight="normal" text-anchor="end">+0.98</text>
<line x1="903.00" y1="182.00" x2="1541.00" y2="182.00" stroke="#d9e0e8" stroke-width="1.5" stroke-linecap="round"/>
<text x="893.00" y="187.00" font-size="13" fill="#617085" font-weight="normal" text-anchor="end">+1.95</text>
<line x1="903.00" y1="359.33" x2="1541.00" y2="359.33" stroke="#6b7480" stroke-width="2" stroke-linecap="round"/>
<circle cx="969.75" cy="228.72" r="5.00" fill="#2878b5" stroke="#ffffff" stroke-width="1.5"/>
<circle cx="982.75" cy="407.98" r="5.00" fill="#2878b5" stroke="#ffffff" stroke-width="1.5"/>
<circle cx="995.75" cy="376.14" r="5.00" fill="#2878b5" stroke="#ffffff" stroke-width="1.5"/>
<line x1="954.75" y1="337.61" x2="1010.75" y2="337.61" stroke="#172033" stroke-width="4" stroke-linecap="round"/>
<text x="982.75" y="566.00" font-size="17" fill="#172033" font-weight="bold" text-anchor="middle">P01</text>
<text x="982.75" y="324.61" font-size="13" fill="#172033" font-weight="normal" text-anchor="middle">+0.24</text>
<circle cx="1129.25" cy="346.94" r="5.00" fill="#2878b5" stroke="#ffffff" stroke-width="1.5"/>
<circle cx="1142.25" cy="317.76" r="5.00" fill="#2878b5" stroke="#ffffff" stroke-width="1.5"/>
<circle cx="1155.25" cy="362.37" r="5.00" fill="#2878b5" stroke="#ffffff" stroke-width="1.5"/>
<line x1="1114.25" y1="342.36" x2="1170.25" y2="342.36" stroke="#172033" stroke-width="4" stroke-linecap="round"/>
<text x="1142.25" y="566.00" font-size="17" fill="#172033" font-weight="bold" text-anchor="middle">P02</text>
<text x="1142.25" y="329.36" font-size="13" fill="#172033" font-weight="normal" text-anchor="middle">+0.19</text>
<circle cx="1288.75" cy="386.29" r="5.00" fill="#d47a22" stroke="#ffffff" stroke-width="1.5"/>
<circle cx="1301.75" cy="327.93" r="5.00" fill="#d47a22" stroke="#ffffff" stroke-width="1.5"/>
<circle cx="1314.75" cy="360.15" r="5.00" fill="#d47a22" stroke="#ffffff" stroke-width="1.5"/>
<line x1="1273.75" y1="358.12" x2="1329.75" y2="358.12" stroke="#172033" stroke-width="4" stroke-linecap="round"/>
<text x="1301.75" y="566.00" font-size="17" fill="#172033" font-weight="bold" text-anchor="middle">P03</text>
<text x="1301.75" y="345.12" font-size="13" fill="#172033" font-weight="normal" text-anchor="middle">+0.01</text>
<circle cx="1448.25" cy="266.40" r="5.00" fill="#d47a22" stroke="#ffffff" stroke-width="1.5"/>
<circle cx="1461.25" cy="488.28" r="5.00" fill="#d47a22" stroke="#ffffff" stroke-width="1.5"/>
<circle cx="1474.25" cy="365.09" r="5.00" fill="#d47a22" stroke="#ffffff" stroke-width="1.5"/>
<line x1="1433.25" y1="373.26" x2="1489.25" y2="373.26" stroke="#172033" stroke-width="4" stroke-linecap="round"/>
<text x="1461.25" y="566.00" font-size="17" fill="#172033" font-weight="bold" text-anchor="middle">P04</text>
<text x="1461.25" y="360.26" font-size="13" fill="#172033" font-weight="normal" text-anchor="middle">-0.15</text>
<text x="835.00" y="177.00" font-size="13" fill="#617085" font-weight="normal" text-anchor="start">dB; higher is better</text>
<rect x="35.00" y="615.00" width="750.00" height="460.00" rx="18" fill="#fbfcfe" stroke="#d7dee8" stroke-width="2"/>
<text x="55.00" y="650.00" font-size="21" fill="#172033" font-weight="bold" text-anchor="start">LPIPS change</text>
<line x1="123.00" y1="1020.00" x2="761.00" y2="1020.00" stroke="#d9e0e8" stroke-width="1.5" stroke-linecap="round"/>
<text x="113.00" y="1025.00" font-size="13" fill="#617085" font-weight="normal" text-anchor="end">-0.016</text>
<line x1="123.00" y1="934.25" x2="761.00" y2="934.25" stroke="#d9e0e8" stroke-width="1.5" stroke-linecap="round"/>
<text x="113.00" y="939.25" font-size="13" fill="#617085" font-weight="normal" text-anchor="end">-0.005</text>
<line x1="123.00" y1="848.50" x2="761.00" y2="848.50" stroke="#d9e0e8" stroke-width="1.5" stroke-linecap="round"/>
<text x="113.00" y="853.50" font-size="13" fill="#617085" font-weight="normal" text-anchor="end">+0.006</text>
<line x1="123.00" y1="762.75" x2="761.00" y2="762.75" stroke="#d9e0e8" stroke-width="1.5" stroke-linecap="round"/>
<text x="113.00" y="767.75" font-size="13" fill="#617085" font-weight="normal" text-anchor="end">+0.018</text>
<line x1="123.00" y1="677.00" x2="761.00" y2="677.00" stroke="#d9e0e8" stroke-width="1.5" stroke-linecap="round"/>
<text x="113.00" y="682.00" font-size="13" fill="#617085" font-weight="normal" text-anchor="end">+0.029</text>
<line x1="123.00" y1="897.31" x2="761.00" y2="897.31" stroke="#6b7480" stroke-width="2" stroke-linecap="round"/>
<circle cx="189.75" cy="974.60" r="5.00" fill="#2878b5" stroke="#ffffff" stroke-width="1.5"/>
<circle cx="202.75" cy="866.07" r="5.00" fill="#2878b5" stroke="#ffffff" stroke-width="1.5"/>
<circle cx="215.75" cy="938.57" r="5.00" fill="#2878b5" stroke="#ffffff" stroke-width="1.5"/>
<line x1="174.75" y1="926.42" x2="230.75" y2="926.42" stroke="#172033" stroke-width="4" stroke-linecap="round"/>
<text x="202.75" y="1051.00" font-size="17" fill="#172033" font-weight="bold" text-anchor="middle">P01</text>
<text x="202.75" y="913.42" font-size="13" fill="#172033" font-weight="normal" text-anchor="middle">-0.004</text>
<circle cx="349.25" cy="930.67" r="5.00" fill="#2878b5" stroke="#ffffff" stroke-width="1.5"/>
<circle cx="362.25" cy="936.73" r="5.00" fill="#2878b5" stroke="#ffffff" stroke-width="1.5"/>
<circle cx="375.25" cy="916.88" r="5.00" fill="#2878b5" stroke="#ffffff" stroke-width="1.5"/>
<line x1="334.25" y1="928.09" x2="390.25" y2="928.09" stroke="#172033" stroke-width="4" stroke-linecap="round"/>
<text x="362.25" y="1051.00" font-size="17" fill="#172033" font-weight="bold" text-anchor="middle">P02</text>
<text x="362.25" y="915.09" font-size="13" fill="#172033" font-weight="normal" text-anchor="middle">-0.004</text>
<circle cx="508.75" cy="902.33" r="5.00" fill="#d47a22" stroke="#ffffff" stroke-width="1.5"/>
<circle cx="521.75" cy="935.16" r="5.00" fill="#d47a22" stroke="#ffffff" stroke-width="1.5"/>
<circle cx="534.75" cy="900.50" r="5.00" fill="#d47a22" stroke="#ffffff" stroke-width="1.5"/>
<line x1="493.75" y1="912.66" x2="549.75" y2="912.66" stroke="#172033" stroke-width="4" stroke-linecap="round"/>
<text x="521.75" y="1051.00" font-size="17" fill="#172033" font-weight="bold" text-anchor="middle">P03</text>
<text x="521.75" y="899.66" font-size="13" fill="#172033" font-weight="normal" text-anchor="middle">-0.002</text>
<circle cx="668.25" cy="882.26" r="5.00" fill="#d47a22" stroke="#ffffff" stroke-width="1.5"/>
<circle cx="681.25" cy="722.40" r="5.00" fill="#d47a22" stroke="#ffffff" stroke-width="1.5"/>
<circle cx="694.25" cy="909.17" r="5.00" fill="#d47a22" stroke="#ffffff" stroke-width="1.5"/>
<line x1="653.25" y1="837.94" x2="709.25" y2="837.94" stroke="#172033" stroke-width="4" stroke-linecap="round"/>
<text x="681.25" y="1051.00" font-size="17" fill="#172033" font-weight="bold" text-anchor="middle">P04</text>
<text x="681.25" y="824.94" font-size="13" fill="#172033" font-weight="normal" text-anchor="middle">+0.008</text>
<text x="55.00" y="672.00" font-size="13" fill="#617085" font-weight="normal" text-anchor="start">lower is better</text>
<rect x="815.00" y="615.00" width="750.00" height="460.00" rx="18" fill="#fbfcfe" stroke="#d7dee8" stroke-width="2"/>
<text x="835.00" y="650.00" font-size="21" fill="#172033" font-weight="bold" text-anchor="start">Chamfer L1 change</text>
<line x1="903.00" y1="1020.00" x2="1541.00" y2="1020.00" stroke="#d9e0e8" stroke-width="1.5" stroke-linecap="round"/>
<text x="893.00" y="1025.00" font-size="13" fill="#617085" font-weight="normal" text-anchor="end">-0.0122</text>
<line x1="903.00" y1="934.25" x2="1541.00" y2="934.25" stroke="#d9e0e8" stroke-width="1.5" stroke-linecap="round"/>
<text x="893.00" y="939.25" font-size="13" fill="#617085" font-weight="normal" text-anchor="end">-0.0081</text>
<line x1="903.00" y1="848.50" x2="1541.00" y2="848.50" stroke="#d9e0e8" stroke-width="1.5" stroke-linecap="round"/>
<text x="893.00" y="853.50" font-size="13" fill="#617085" font-weight="normal" text-anchor="end">-0.0040</text>
<line x1="903.00" y1="762.75" x2="1541.00" y2="762.75" stroke="#d9e0e8" stroke-width="1.5" stroke-linecap="round"/>
<text x="893.00" y="767.75" font-size="13" fill="#617085" font-weight="normal" text-anchor="end">+0.0001</text>
<line x1="903.00" y1="677.00" x2="1541.00" y2="677.00" stroke="#d9e0e8" stroke-width="1.5" stroke-linecap="round"/>
<text x="893.00" y="682.00" font-size="13" fill="#617085" font-weight="normal" text-anchor="end">+0.0043</text>
<line x1="903.00" y1="765.75" x2="1541.00" y2="765.75" stroke="#6b7480" stroke-width="2" stroke-linecap="round"/>
<circle cx="969.75" cy="759.73" r="5.00" fill="#2878b5" stroke="#ffffff" stroke-width="1.5"/>
<circle cx="982.75" cy="758.74" r="5.00" fill="#2878b5" stroke="#ffffff" stroke-width="1.5"/>
<circle cx="995.75" cy="753.99" r="5.00" fill="#2878b5" stroke="#ffffff" stroke-width="1.5"/>
<line x1="954.75" y1="757.49" x2="1010.75" y2="757.49" stroke="#172033" stroke-width="4" stroke-linecap="round"/>
<text x="982.75" y="1051.00" font-size="17" fill="#172033" font-weight="bold" text-anchor="middle">P01</text>
<text x="982.75" y="744.49" font-size="13" fill="#172033" font-weight="normal" text-anchor="middle">+0.0004</text>
<circle cx="1129.25" cy="751.34" r="5.00" fill="#2878b5" stroke="#ffffff" stroke-width="1.5"/>
<circle cx="1142.25" cy="819.51" r="5.00" fill="#2878b5" stroke="#ffffff" stroke-width="1.5"/>
<circle cx="1155.25" cy="816.24" r="5.00" fill="#2878b5" stroke="#ffffff" stroke-width="1.5"/>
<line x1="1114.25" y1="795.70" x2="1170.25" y2="795.70" stroke="#172033" stroke-width="4" stroke-linecap="round"/>
<text x="1142.25" y="1051.00" font-size="17" fill="#172033" font-weight="bold" text-anchor="middle">P02</text>
<text x="1142.25" y="782.70" font-size="13" fill="#172033" font-weight="normal" text-anchor="middle">-0.0014</text>
<circle cx="1288.75" cy="742.63" r="5.00" fill="#d47a22" stroke="#ffffff" stroke-width="1.5"/>
<circle cx="1301.75" cy="732.37" r="5.00" fill="#d47a22" stroke="#ffffff" stroke-width="1.5"/>
<circle cx="1314.75" cy="722.48" r="5.00" fill="#d47a22" stroke="#ffffff" stroke-width="1.5"/>
<line x1="1273.75" y1="732.49" x2="1329.75" y2="732.49" stroke="#172033" stroke-width="4" stroke-linecap="round"/>
<text x="1301.75" y="1051.00" font-size="17" fill="#172033" font-weight="bold" text-anchor="middle">P03</text>
<text x="1301.75" y="719.49" font-size="13" fill="#172033" font-weight="normal" text-anchor="middle">+0.0016</text>
<circle cx="1448.25" cy="974.60" r="5.00" fill="#d47a22" stroke="#ffffff" stroke-width="1.5"/>
<circle cx="1461.25" cy="841.93" r="5.00" fill="#d47a22" stroke="#ffffff" stroke-width="1.5"/>
<circle cx="1474.25" cy="722.40" r="5.00" fill="#d47a22" stroke="#ffffff" stroke-width="1.5"/>
<line x1="1433.25" y1="846.31" x2="1489.25" y2="846.31" stroke="#172033" stroke-width="4" stroke-linecap="round"/>
<text x="1461.25" y="1051.00" font-size="17" fill="#172033" font-weight="bold" text-anchor="middle">P04</text>
<text x="1461.25" y="833.31" font-size="13" fill="#172033" font-weight="normal" text-anchor="middle">-0.0039</text>
<text x="835.00" y="672.00" font-size="13" fill="#617085" font-weight="normal" text-anchor="start">meters; lower is better</text>
<rect x="1217.00" y="39.00" width="20.00" height="20.00" rx="0" fill="#2878b5" stroke="none" stroke-width="1"/>
<text x="1245.00" y="56.00" font-size="16" fill="#172033" font-weight="normal" text-anchor="start">Development</text>
<rect x="1392.00" y="39.00" width="20.00" height="20.00" rx="0" fill="#d47a22" stroke="none" stroke-width="1"/>
<text x="1420.00" y="56.00" font-size="16" fill="#172033" font-weight="normal" text-anchor="start">Held-out</text>
</svg>
